<svg xmlns="http://www.w3.org/2000/svg" viewBox="0 0 500 500">
  <defs>
    <linearGradient id="grad" x1="0%" y1="0%" x2="100%" y2="100%">
      <stop offset="0%" style="stop-color:#0f172a;stop-opacity:1" />
      <stop offset="100%" style="stop-color:#1e293b;stop-opacity:1" />
    </linearGradient>
  </defs>
  
  <!-- Background Circle -->
  <circle cx="250" cy="250" r="240" fill="url(#grad)" stroke="#10b981" stroke-width="15"/>
  
  <!-- Icon Group: Store Awning + Utensils -->
  <g transform="translate(100, 90)">
    <!-- Store Awning (Merchandise) -->
    <path d="M10 80 L50 10 L250 10 L290 80 Z" fill="#10b981" />
    <path d="M10 80 L10 100 A 20 20 0 0 0 50 100 L50 80" fill="#059669" />
    <path d="M50 80 L50 100 A 20 20 0 0 0 90 100 L90 80" fill="#10b981" />
    <path d="M90 80 L90 100 A 20 20 0 0 0 130 100 L130 80" fill="#059669" />
    <path d="M130 80 L130 100 A 20 20 0 0 0 170 100 L170 80" fill="#10b981" />
    <path d="M170 80 L170 100 A 20 20 0 0 0 210 100 L210 80" fill="#059669" />
    <path d="M210 80 L210 100 A 20 20 0 0 0 250 100 L250 80" fill="#10b981" />
    <path d="M250 80 L250 100 A 20 20 0 0 0 290 100 L290 80" fill="#059669" />

    <!-- Fork & Spoon (Eatery) -->
    <path d="M110 140 L110 240 L125 240 L125 140 C 125 140 140 140 140 170 L140 190 C 140 210 110 210 110 190 M 110 190 C 110 210 80 210 80 190 L 80 170 C 80 140 95 140 95 140 L95 240 L110 240" fill="#fff" transform="translate(35, 0)"/> 
    <ellipse cx="150" cy="170" rx="25" ry="35" fill="#fff" transform="translate(35, 0)"/>
    <rect x="145" y="200" width="10" height="40" fill="#fff" transform="translate(35, 0)"/>
  </g>

  <!-- Text -->
  <text x="250" y="380" font-family="Arial, sans-serif" font-weight="bold" font-size="65" text-anchor="middle" fill="#ffffff" letter-spacing="2">ARLYN'S</text>
  <text x="250" y="420" font-family="Arial, sans-serif" font-weight="normal" font-size="24" text-anchor="middle" fill="#10b981" letter-spacing="1" text-transform="uppercase">Eatery &amp; Gen. Merch</text>
</svg>