<svg width="48" height="48" viewBox="0 0 48 48" fill="none" xmlns="http://www.w3.org/2000/svg">
<g clip-path="url(#clip0_350_10180)">
<rect width="48" height="48" fill="#00291B"/>
<g clip-path="url(#clip1_350_10180)">
<path fill-rule="evenodd" clip-rule="evenodd" d="M19.0497 18.7264C20.5547 17.8575 22.2619 17.4 23.9997 17.4C25.7375 17.4 27.4447 17.8575 28.9497 18.7264C30.4547 19.5953 31.7044 20.845 32.5733 22.35C30.995 23.2613 28.99 22.612 27.4336 21.6637C27.3893 21.6367 27.3447 21.6102 27.2997 21.5843C26.2964 21.005 25.1582 20.7 23.9997 20.7C22.8411 20.7 21.703 21.005 20.6997 21.5843C20.6547 21.6102 20.61 21.6367 20.5657 21.6637C19.0093 22.612 17.0044 23.2613 15.426 22.35C16.2949 20.845 17.5447 19.5953 19.0497 18.7264Z" fill="#525647"/>
<path fill-rule="evenodd" clip-rule="evenodd" d="M19.0497 18.7264C20.5547 17.8575 22.2619 17.4 23.9997 17.4C25.7375 17.4 27.4447 17.8575 28.9497 18.7264C30.4547 19.5953 31.7044 20.845 32.5733 22.35C30.995 23.2613 28.99 22.612 27.4336 21.6637C27.3893 21.6367 27.3447 21.6102 27.2997 21.5843C26.2964 21.005 25.1582 20.7 23.9997 20.7C22.8411 20.7 21.703 21.005 20.6997 21.5843C20.6547 21.6102 20.61 21.6367 20.5657 21.6637C19.0093 22.612 17.0044 23.2613 15.426 22.35C16.2949 20.845 17.5447 19.5953 19.0497 18.7264Z" fill="url(#paint0_linear_350_10180)"/>
<path fill-rule="evenodd" clip-rule="evenodd" d="M19.0497 18.7264C20.5547 17.8575 22.2619 17.4 23.9997 17.4C25.7375 17.4 27.4447 17.8575 28.9497 18.7264C30.4547 19.5953 31.7044 20.845 32.5733 22.35C30.995 23.2613 28.99 22.612 27.4336 21.6637C27.3893 21.6367 27.3447 21.6102 27.2997 21.5843C26.2964 21.005 25.1582 20.7 23.9997 20.7C22.8411 20.7 21.703 21.005 20.6997 21.5843C20.6547 21.6102 20.61 21.6367 20.5657 21.6637C19.0093 22.612 17.0044 23.2613 15.426 22.35C16.2949 20.845 17.5447 19.5953 19.0497 18.7264Z" fill="url(#paint1_linear_350_10180)"/>
<path fill-rule="evenodd" clip-rule="evenodd" d="M19.0497 18.7264C20.5547 17.8575 22.2619 17.4 23.9997 17.4C25.7375 17.4 27.4447 17.8575 28.9497 18.7264C30.4547 19.5953 31.7044 20.845 32.5733 22.35C30.995 23.2613 28.99 22.612 27.4336 21.6637C27.3893 21.6367 27.3447 21.6102 27.2997 21.5843C26.2964 21.005 25.1582 20.7 23.9997 20.7C22.8411 20.7 21.703 21.005 20.6997 21.5843C20.6547 21.6102 20.61 21.6367 20.5657 21.6637C19.0093 22.612 17.0044 23.2613 15.426 22.35C16.2949 20.845 17.5447 19.5953 19.0497 18.7264Z" fill="url(#paint2_radial_350_10180)"/>
<circle cx="24" cy="10.8" r="3.3" fill="#C4C4C4"/>
<circle cx="24" cy="10.8" r="3.3" fill="url(#paint3_linear_350_10180)"/>
<circle cx="37.2001" cy="17.4" r="3.3" fill="#C4C4C4"/>
<circle cx="37.2001" cy="17.4" r="3.3" fill="url(#paint4_linear_350_10180)"/>
<circle cx="10.8" cy="17.4" r="3.3" fill="#C4C4C4"/>
<circle cx="10.8" cy="17.4" r="3.3" fill="url(#paint5_linear_350_10180)"/>
<path fill-rule="evenodd" clip-rule="evenodd" d="M30.6 37.2131C36.0676 37.2131 40.5 32.7807 40.5 27.3131L40.5 24.0131L33.9 24.0131C28.4324 24.0131 24 28.4454 24 33.9131L24 37.2131H24.0001L24.0001 40.5H24.0001C24.0001 38.7723 25.3296 37.3549 27.0207 37.2131L30.6 37.2131Z" fill="url(#paint6_linear_350_10180)"/>
<path fill-rule="evenodd" clip-rule="evenodd" d="M17.4 37.2032C11.9324 37.2032 7.5 32.7708 7.5 27.3032L7.5 24L14.1 24C19.5676 24 24 28.4324 24 33.9L24 37.1914H24.0001L24.0001 40.4909H24C24 38.7632 22.6717 37.3457 20.9809 37.2032L17.4 37.2032Z" fill="url(#paint7_linear_350_10180)"/>
<path d="M24 40.513V40.513C24 33.2228 29.9098 27.313 37.2 27.313L40.5 27.313" stroke="#17AD49" stroke-width="0.825" stroke-linecap="round"/>
<path d="M24 40.5001V40.5001C24 33.2099 18.0902 27.3 10.8 27.3L7.5 27.3" stroke="#17AD49" stroke-width="0.825" stroke-linecap="round"/>
</g>
</g>
<defs>
<linearGradient id="paint0_linear_350_10180" x1="38.855" y1="17.0576" x2="39.874" y2="24.7273" gradientUnits="userSpaceOnUse">
<stop stop-color="#A5EB12"/>
<stop offset="1" stop-color="#17AD49"/>
</linearGradient>
<linearGradient id="paint1_linear_350_10180" x1="17.8489" y1="17.449" x2="21.6381" y2="26.5158" gradientUnits="userSpaceOnUse">
<stop stop-color="#A5EB12"/>
<stop offset="1" stop-color="#009030"/>
</linearGradient>
<radialGradient id="paint2_radial_350_10180" cx="0" cy="0" r="1" gradientUnits="userSpaceOnUse" gradientTransform="translate(32.5445 17.4) rotate(158.491) scale(18.1394 15.2555)">
<stop stop-color="#A5EB12"/>
<stop offset="1" stop-color="#17AD49"/>
</radialGradient>
<linearGradient id="paint3_linear_350_10180" x1="29.7178" y1="7.15759" x2="32.1251" y2="14.1317" gradientUnits="userSpaceOnUse">
<stop stop-color="#A5EB12"/>
<stop offset="1" stop-color="#17AD49"/>
</linearGradient>
<linearGradient id="paint4_linear_350_10180" x1="42.9179" y1="13.7576" x2="45.3253" y2="20.7317" gradientUnits="userSpaceOnUse">
<stop stop-color="#A5EB12"/>
<stop offset="1" stop-color="#17AD49"/>
</linearGradient>
<linearGradient id="paint5_linear_350_10180" x1="16.5178" y1="13.7576" x2="18.9252" y2="20.7317" gradientUnits="userSpaceOnUse">
<stop stop-color="#A5EB12"/>
<stop offset="1" stop-color="#17AD49"/>
</linearGradient>
<linearGradient id="paint6_linear_350_10180" x1="46.5445" y1="23.1577" x2="52.5545" y2="40.5821" gradientUnits="userSpaceOnUse">
<stop stop-color="#A5EB12"/>
<stop offset="1" stop-color="#17AD49"/>
</linearGradient>
<linearGradient id="paint7_linear_350_10180" x1="30.0446" y1="23.1573" x2="36.0586" y2="40.587" gradientUnits="userSpaceOnUse">
<stop stop-color="#A5EB12"/>
<stop offset="1" stop-color="#3DBE3B"/>
</linearGradient>
<clipPath id="clip0_350_10180">
<rect width="48" height="48" rx="12" fill="white"/>
</clipPath>
<clipPath id="clip1_350_10180">
<rect width="33" height="33" fill="white" transform="translate(7.5 7.5)"/>
</clipPath>
</defs>
</svg>
